# xmcd
#
# Track frame offsets:
#	150
#	20346
#	40873
#	54892
#	77739
#	94200
#	114255
#	129161
#	159469
#	186561
#	207497
#	230709
#	241862
#
# Disc length: 3397 seconds
# Revision: 1
# Processed by: cddbd v1.5.2PL0 Copyright (c) Steve Scherf et al.
# Submitted via: dBpowerAMP V12.0
#
DISCID=a30d430d
DTITLE=Jalan Crossland - Trailer Park Fire and Other Tragedies
DYEAR=2007
DGENRE=Country
TTITLE0=Hoboerotica
TTITLE1=Alabama Sweetly
TTITLE2=Great Atomic Power
TTITLE3=Methamphetamine Saturday Night in the Country with You
TTITLE4=Trailer Park Fire
TTITLE5=The Little Girl and The Dreadful Snake
TTITLE6=Pegleg
TTITLE7=Hard Ol' Biznis
TTITLE8=Big Country
TTITLE9=Little Iron Cross
TTITLE10=Jimmy's Band
TTITLE11=Devil's Dream
TTITLE12=Spider
EXTD=
EXTT0=
EXTT1=
EXTT2=
EXTT3=
EXTT4=
EXTT5=
EXTT6=
EXTT7=
EXTT8=
EXTT9=
EXTT10=
EXTT11=
EXTT12=
PLAYORDER=
